<svg width="298.57" height="100" viewBox="0 0 418 140" fill="#fff" xmlns="http://www.w3.org/2000/svg" xmlns:xlink="http://www.w3.org/1999/xlink">
    <desc>
        Created with Pixso.
    </desc>
    <defs/>
    <path id="Rectangle" d="M0 18C0 15.7909 1.79102 14 4 14L19.3521 14L29.0278 0L38.7036 14L414 14C416.209 14 418 15.7909 418 18L418 136C418 138.209 416.209 140 414 140L4 140C1.79102 140 0 138.209 0 136L0 18Z" fill="#FFFFFF" fill-opacity="1.000000" fill-rule="evenodd"/>
    <path id="Rectangle" d="M19.3521 14L4 14C1.79102 14 0 15.7909 0 18L0 136C0 138.209 1.79102 140 4 140L414 140C416.209 140 418 138.209 418 136L418 18C418 15.7909 416.209 14 414 14L38.7036 14L29.6357 0.879395L29.0278 0L28.4199 0.879395L19.3521 14ZM29.0278 1.75879L20.1743 14.5686L19.8765 15L4 15Q2.5 15 1.75 15.75Q1 16.5 1 18L1 136Q1 137.5 1.75 138.25Q2.5 139 4 139L414 139Q415.5 139 416.25 138.25Q417 137.5 417 136L417 18Q417 16.5 416.25 15.75Q415.5 15 414 15L38.1792 15L29.0278 1.75879Z" fill="#274C5B" fill-opacity="1.000000" fill-rule="evenodd"/>
</svg>
