<svg width="18" height="21" viewBox="0 0 18 21" fill="none" xmlns="http://www.w3.org/2000/svg">
<path d="M12.3161 1.96511C11.4741 1.02717 10.298 0.510651 9 0.510651C7.69504 0.510651 6.51512 1.02404 5.67701 1.95618C4.82983 2.89858 4.41705 4.17938 4.51397 5.56241C4.70608 8.29096 6.71848 10.5106 9 10.5106C11.2815 10.5106 13.2905 8.29141 13.4856 5.5633C13.5838 4.19277 13.1684 2.91465 12.3161 1.96511ZM16.6152 20.5105H1.38482C1.18547 20.5132 0.988051 20.47 0.806921 20.384C0.625791 20.2981 0.46551 20.1716 0.337738 20.0137C0.0564959 19.6668 -0.0568664 19.1931 0.0270736 18.7141C0.392256 16.624 1.53194 14.8682 3.32323 13.6356C4.91463 12.5414 6.93049 11.9392 9 11.9392C11.0695 11.9392 13.0854 12.5418 14.6768 13.6356C16.4681 14.8677 17.6077 16.6235 17.9729 18.7137C18.0569 19.1927 17.9435 19.6663 17.6623 20.0132C17.5345 20.1712 17.3743 20.2978 17.1931 20.3838C17.012 20.4699 16.8146 20.5132 16.6152 20.5105Z" fill="#7EB693"/>
</svg>
